<?xml version="1.0" encoding="UTF-8"?>
<svg id="Layer_1" data-name="Layer 1" xmlns="http://www.w3.org/2000/svg" viewBox="0 0 383.82 383.79">
  <defs>
    <style>
      .cls-1 {
        fill: #494949;
        stroke-width: 0px;
      }
    </style>
  </defs>
  <path class="cls-1" d="M0,194.79c.98-7.03,1.7-14.1,2.98-21.08,7.37-40.27,26.58-73.98,57.08-101.15,28.79-25.64,62.6-40.29,100.94-43.95,35.88-3.42,69.85,3.44,101.61,20.65,1,.54,2.09,2.28,1.96,3.31-1.68,13.38-3.58,26.73-5.44,40.09-.07.48-.31.93-.56,1.65-35.29-24.31-73.77-31.98-115.21-21.42-32.99,8.4-59.09,27.31-78.62,55.21-37.57,53.67-30.61,128.39,16.28,174.92,47.96,47.59,122.39,53.76,177.05,14.25,30.68-22.17,49.42-52.2,55.48-89.65,6.03-37.27-2.54-71.37-24.32-102.69,7.24-1,14.03-1.95,20.81-2.89,6.68-.93,13.38-1.73,20.03-2.83,2.52-.42,3.77.25,4.96,2.51,15.09,28.73,22.26,59.25,20.75,91.69-3.73,79.95-58.63,146.7-136.17,165.37-8.94,2.15-18.22,2.91-27.33,4.33-1.09.17-2.17.44-3.25.66h-21.75c-1.22-.22-2.43-.5-3.65-.67-6.92-.96-13.91-1.52-20.74-2.89-34.59-6.93-64.51-22.84-89.61-47.6-26.74-26.36-43.67-58.03-50.3-95.06C1.69,230.61.97,223.55,0,216.54c0-7.25,0-14.5,0-21.75Z"/>
  <path class="cls-1" d="M250.25,116.78c-9.58,9.58-19.02,19.01-28.71,28.7-19.14-13.36-40.48-17.43-63.39-11.28-17.41,4.68-31.24,14.82-41.47,29.68-20.7,30.06-16.35,70.43,10.21,95.8,26.33,25.14,66.89,27.21,96.23,5.15,28.92-21.74,40.76-66.93,14.94-103.29,4.71-4.67,9.5-9.38,14.25-14.13,4.75-4.75,9.45-9.55,14.19-14.34,34.01,39.14,38.34,106.77-6.03,152.59-44.57,46.02-116.53,46.82-162.95,2.02-44.4-42.86-45.8-115.78-3.49-160.34,44.91-47.3,114.68-46.01,156.23-10.57Z"/>
  <path class="cls-1" d="M221.54,178.1c14.4,21.04,9.49,51.08-10.65,67.72-20.62,17.02-51.09,15.4-69.81-3.73-18.86-19.26-19.97-49.48-2.57-69.85,16.79-19.65,47.12-24.31,67.12-9.98-5.93,5.92-11.81,11.79-17.69,17.66-5.91,5.89-11.82,11.78-17.56,17.49,5.39,5.37,10.5,10.46,16.03,15.97,5.54-5.56,11.41-11.44,17.27-17.33,5.9-5.92,11.79-11.85,17.86-17.95Z"/>
  <path class="cls-1" d="M280.42,103.26c1.68-12.34,3.28-24.2,4.9-36.05.59-4.33,1.45-8.63,1.76-12.98.22-3.09,1.42-5.3,3.59-7.45,14.73-14.58,29.36-29.28,44.02-43.93.86-.86,1.78-1.66,3.07-2.86,3.23,8.63,6.78,16.72,9.22,25.13,1.87,6.45,5.44,9.78,11.77,11.66,8.33,2.48,16.36,5.96,25.06,9.21-1.05,1.14-1.83,2.04-2.66,2.88-14.92,14.93-29.8,29.9-44.84,44.71-1.53,1.51-3.96,2.58-6.11,2.9-15.55,2.32-31.13,4.39-46.7,6.53-.84.12-1.7.14-3.08.25Z"/>
</svg>